# xmcd
#
# Track frame offsets: 
#        150
#        17767
#        35220
#        57104
#        73484
#        88660
#        114771
#        128134
#        144641
#        163994
#        181576
#        203106
#
# Disc length: 2946 seconds
#
# Revision: 0
# Processed by: cddbd v1.5.1PL0 Copyright (c) Steve Scherf et al.
# Submitted via: ExactAudioCopy v0.95a5
#
DISCID=ab0b800c
DTITLE=Brian Kramer and The Couch Lizards - No Regrets
DYEAR=2004
DGENRE=Blues
TTITLE0=No Regrets
TTITLE1=Old Photograph
TTITLE2=Long Ago
TTITLE3=Come Home To Me
TTITLE4=Broken Angel
TTITLE5=I Must Be Dreamin'
TTITLE6=Every Little Bit Counts
TTITLE7=You Can Change It All
TTITLE8=Right As Rain
TTITLE9=Don't Fall To Deep
TTITLE10=Rocks In My Heart
TTITLE11=Little Stone House
EXTD=
EXTT0=
EXTT1=
EXTT2=
EXTT3=
EXTT4=
EXTT5=
EXTT6=
EXTT7=
EXTT8=
EXTT9=
EXTT10=
EXTT11=
PLAYORDER=
